<svg width="57" height="29" viewBox="0 0 57 29" fill="none" xmlns="http://www.w3.org/2000/svg">
<circle cx="14.5" cy="14.5" r="14.5" fill="white"/>
<path d="M24.96 18.76H17.96L16.58 22H13.9L20.2 8H22.76L29.08 22H26.36L24.96 18.76ZM24.1 16.72L21.46 10.6L18.84 16.72H24.1Z" fill="#1F1E20"/>
<path d="M35.4205 22.14C34.3405 22.14 33.3671 21.9067 32.5005 21.44C31.6338 20.9733 30.9538 20.3267 30.4605 19.5C29.9805 18.66 29.7405 17.7133 29.7405 16.66C29.7405 15.6067 29.9805 14.6667 30.4605 13.84C30.9538 13.0133 31.6338 12.3667 32.5005 11.9C33.3671 11.4333 34.3405 11.2 35.4205 11.2C36.5138 11.2 37.4938 11.4333 38.3605 11.9C39.2271 12.3667 39.9005 13.0133 40.3805 13.84C40.8738 14.6667 41.1205 15.6067 41.1205 16.66C41.1205 17.7133 40.8738 18.66 40.3805 19.5C39.9005 20.3267 39.2271 20.9733 38.3605 21.44C37.4938 21.9067 36.5138 22.14 35.4205 22.14ZM35.4205 20C36.3405 20 37.1005 19.6933 37.7005 19.08C38.3005 18.4667 38.6005 17.66 38.6005 16.66C38.6005 15.66 38.3005 14.8533 37.7005 14.24C37.1005 13.6267 36.3405 13.32 35.4205 13.32C34.5005 13.32 33.7405 13.6267 33.1405 14.24C32.5538 14.8533 32.2605 15.66 32.2605 16.66C32.2605 17.66 32.5538 18.4667 33.1405 19.08C33.7405 19.6933 34.5005 20 35.4205 20ZM43.5111 7.16H46.0111V22H43.5111V7.16ZM56.2397 21.42C55.9464 21.66 55.5864 21.84 55.1597 21.96C54.7464 22.08 54.3064 22.14 53.8397 22.14C52.6664 22.14 51.7597 21.8333 51.1197 21.22C50.4797 20.6067 50.1597 19.7133 50.1597 18.54V13.4H48.3997V11.4H50.1597V8.96H52.6597V11.4H55.5197V13.4H52.6597V18.48C52.6597 19 52.7864 19.4 53.0397 19.68C53.293 19.9467 53.6597 20.08 54.1397 20.08C54.6997 20.08 55.1664 19.9333 55.5397 19.64L56.2397 21.42Z" fill="white"/>
</svg>
